<svg xmlns="http://www.w3.org/2000/svg" viewBox="0 0 980 980" fill="none" shape-rendering="auto" width="256" height="256"><metadata xmlns:rdf="http://www.w3.org/1999/02/22-rdf-syntax-ns#" xmlns:xsi="http://www.w3.org/2001/XMLSchema-instance" xmlns:dc="http://purl.org/dc/elements/1.1/" xmlns:dcterms="http://purl.org/dc/terms/"><rdf:RDF><rdf:Description><dc:title>Lorelei</dc:title><dc:creator>Lisa Wischofsky</dc:creator><dc:source xsi:type="dcterms:URI">https://www.figma.com/community/file/1198749693280469639</dc:source><dcterms:license xsi:type="dcterms:URI">https://creativecommons.org/publicdomain/zero/1.0/</dcterms:license><dc:rights>Remix of „Lorelei” (https://www.figma.com/community/file/1198749693280469639) by „Lisa Wischofsky”, licensed under „CC0 1.0” (https://creativecommons.org/publicdomain/zero/1.0/)</dc:rights></rdf:Description></rdf:RDF></metadata><mask id="viewboxMask"><rect width="980" height="980" rx="490" ry="490" x="0" y="0" fill="#fff" /></mask><g mask="url(#viewboxMask)"><rect fill="#121821" width="980" height="980" x="0" y="0" /><g transform="translate(10 -60)"><path d="M663 169c3 1 4 4 5 6l1 15c0 17-6 34-15 49 12-4 25-6 38-5 14 2 29 6 40 15 4 5 10 11 9 18l-4-2-17-10c-10-5-22-6-34-7-10 1-20 2-29 5 6 1 11 4 17 7 23 14 44 35 53 61 5 13 6 27 2 41-1 1-2 3-1 5 7 19 9 39 8 59-1 17-5 34-13 49-4 9-11 17-18 23-5 4-12 7-19 5-7-3-12-10-15-18-4-8-4-18-4-27 1-10 2-20 5-29-7 4-15 9-23 9l8-9c6-6 11-13 15-21 3-11 3-22 2-32-4-25-15-48-32-66a128 128 0 0 1-4 80c-5 13-14 25-25 35-7 8-18 16-29 18-2 0-6 0-6-2 3-7 8-14 10-22 4-12 4-25 3-38-1-18-4-35-9-51l-4-11v17c-1 16-5 32-11 47a97 97 0 0 1-58 49c-4 1-9 3-13-1l11-7c8-6 16-11 23-18s12-16 17-24c8-17 13-35 13-54-2 11-7 22-11 32-9 17-21 33-35 47-14 15-31 28-50 35-5 2-11 4-17 3l-3-3c0-7 3-13 5-19 3-16 6-32 6-48a170 170 0 0 1-59 67c-14 11-30 19-47 25-4 24-6 48-4 72 3 26 12 51 30 71 1 2 3 3 3 6-5-1-8-4-11-7a97 97 0 0 1-30-47c-1 16 1 31 1 47l-1 5c-9 1-18-3-26-7l-29-16c-12-10-24-23-31-38-8-17-17-34-23-52-11-32-17-65-12-99 4-26 13-51 28-72 20-26 45-48 74-64a351 351 0 0 1 288-27c22-10 41-29 51-51l6-19Z" fill="#000000"/><path d="M495 234c28 1 56 6 84 15a201 201 0 0 1 100 65c19 25 31 55 35 86a361 361 0 0 1 2 101l-5 34-4 20c-1 2-1 2-3 2-2-4-2-8-2-12-1-15 1-29 2-44 1-24 3-48 1-72l-6-45c-7-28-20-54-40-75-18-18-40-33-63-43-22-9-44-15-67-19-18-3-36-4-54-4a277 277 0 0 0-128 29c-13 9-25 20-35 32a276 276 0 0 0-55 139c-1 24 0 47 8 70l7 15 12 1 1 3c-3 2-7 2-11 3-10 2-20 6-29 12-7 5-14 11-18 19-5 10-3 22-1 33 5 19 17 37 33 49 11 9 25 14 39 16 10 2 20 0 30-1 5 4 8 12 11 17l18 27a136 136 0 0 0 66 50c22 9 45 14 68 19l41 8 17 5v4h-12a535 535 0 0 1-67-8 255 255 0 0 1-84-33c-11-7-21-16-29-27a214 214 0 0 1-16 123c-15 27-40 48-70 57-3 1-7 2-10 1-2 0-2-1-2-3 1-3 4-5 6-6 12-8 26-14 38-23 13-11 24-23 31-38 6-15 10-32 12-49 2-13 3-26 2-40l-4-38-18-36-19 4a88 88 0 0 1-75-38 93 93 0 0 1-20-58c0-9 3-18 8-25s12-13 19-17c5-4 12-6 18-8l-9-24c-5-22-5-45-2-67a292 292 0 0 1 63-149c9-10 18-19 29-26 7-4 14-5 20-9 43-19 90-25 137-22Z" fill="#000"/><path d="M475 243a276 276 0 0 1 121 23c23 10 45 25 63 43 20 21 33 47 40 75l6 45c2 24 0 48-1 72-1 15-3 29-2 44 0 4 0 8 2 12l-1 20c-2 5-2 10-2 16-2 24-2 49-6 74-1 12-3 25-8 36-3 9-8 17-15 24-12 13-27 24-43 33-19 11-39 16-58 24-5 2-10 4-13 8 8 1 15 0 23-2-5 12-6 24-6 36 0 5-1 11 1 16 3 5 8 9 13 12l35 13c22 8 43 18 65 27 2 4 5 7 6 12 6 11 7 23 3 35-5 13-15 24-27 31-16 11-36 19-55 24a494 494 0 0 1-235-7c-20-7-40-14-58-24-14-8-29-18-40-31-6-8-11-19-12-29a122 122 0 0 0 86-107c4-24 4-49 0-73 8 11 18 20 29 27l27 14a331 331 0 0 0 124 27h12v-4l-17-5-41-8c-23-5-46-10-68-19-13-6-27-13-39-21-10-9-19-18-27-29l-18-27c-3-5-6-13-11-17-10 1-20 3-30 1-14-2-28-7-39-16a94 94 0 0 1-33-49c-2-11-4-23 1-33 4-8 11-14 18-19 9-6 19-10 29-12 4-1 8-1 11-3l-1-3-12-1-7-15c-8-23-9-46-7-70a276 276 0 0 1 54-139c10-12 22-23 35-32a277 277 0 0 1 128-30Z" fill="#ffffff"/><path d="M260 571c4 0 7 0 11 2 5 1 11 4 14 8 2 3 2 7 0 10-5 6-12 10-16 16 6 4 14 6 21 9 4 1 8 3 11 6l1 3-8-2-24-7c-4-1-8-3-9-7-1-3 1-7 3-10l15-13c-4-7-15-8-19-15ZM703 577l2 3 2 16a483 483 0 0 1-2 89c-2 11-5 23-10 33a198 198 0 0 1-106 71c-1 14-3 31-2 47l5 5c8 6 18 9 27 12a451 451 0 0 1 68 28c7 4 13 9 18 15-5 1-10-1-16-2-22-9-43-19-65-27l-35-13c-5-3-10-7-13-12-2-5-1-11-1-16 0-12 1-24 6-36-8 2-15 3-23 2 3-4 8-6 13-8 19-8 39-13 58-24 16-9 31-20 43-33 7-7 12-15 15-24 5-11 7-24 8-36 4-25 4-50 6-74 0-6 0-11 2-16Z" fill="#000"/><path d="M479 474c8 3 15 6 19 13h-5c-13-2-25-8-38-9-11-2-22-2-33 0 1-4 6-6 10-7 15-4 32-3 47 3ZM675 476l1 1-18 2c-9 1-17 5-26 8l-6 3c0-3 3-5 5-7l15-8c9-4 19-3 29 1ZM680 485c6 1 12 3 16 8 3 3 5 9 2 13s-8 5-12 2c-3-3-3-6-3-9-8-5-16-4-25-1 2 2 5 3 6 6 4 5 4 11 2 17-5 8-15 14-25 13-7-2-12-8-13-15l-8 10-4 5c-3-3-2-6-1-10 5-12 15-21 26-28 11-8 25-13 39-11ZM446 488c24 2 47 11 66 26 4 3 9 8 10 13 1 3-1 6-4 6l-6-5c-3-4-8-6-12-9 1 8 0 15-5 20-3 5-8 7-13 7-8 1-16-2-22-8-9-10-8-26 1-36-10-2-19-3-28-2-6 1-12 4-16 8-2 2-1 4-2 6-1 4-5 7-9 6-4 0-8-3-9-7-1-5 1-11 5-14 5-5 13-7 19-9 9-1 17-3 25-2Z" fill="#000000"/><path d="M480 404c10 1 19 0 29 3 9 3 18 10 22 19 4 6 2 16-6 19-6 4-15 3-23 2-20-3-40-9-60-14l-20-4-10-2-4-4c2-4 6-6 10-7l20-7 18-3 24-2ZM656 410c8 1 15 4 22 7l9 4c2 2 3 6 1 8l-10 4c-17 4-33 11-51 12l-9 1c-3 0-6-2-8-4-3-2-4-5-4-9 0-7 2-15 8-20 4-3 11-4 16-5 8 0 17 0 26 2Z" fill="#000000"/><path d="M607 606c0 3-2 6-4 9-4 6-11 10-18 12-5 1-9-2-13 0-4 0-8 1-12-1-2-1-2-4 0-6 3-4 8-7 12-7 4-1 7-1 10 2l1 7c5-2 7-5 11-8l13-8Z" fill="#000000"/><path d="M649 656c8 0 17 1 25 3 3 1 7 2 8 6 1 3-2 6-5 6-6 0-11-2-17-3-11-2-24 0-35 1l-45 4h-26c-19 1-38 2-56 7l-10 4c-4 4-8 8-14 11h-5c-2-1-3-4-2-6 2-6 6-11 11-15 5-3 10-4 16-5l25-2c14-1 27-3 41-3l34-3c19-2 36-5 55-5Z" fill="#000000"/><path d="m663 170 4 3c2 5 2 11 2 16 0 18-6 35-15 50 13-4 26-6 40-4 13 2 28 6 38 16 5 4 10 10 9 16l-6-3c-7-5-14-9-22-11-19-6-38-5-56 0l17 8c23 13 42 32 52 56 5 13 7 26 4 39s-9 26-17 36a151 151 0 0 1-51 42c-4 3-9 5-14 5l10-12c9-7 15-18 16-29 2-13 0-26-4-38-5-19-15-35-28-50 8 27 6 56-4 81-6 14-15 26-26 36-7 7-16 13-26 16-3 0-6 1-8-1l7-13c4-9 6-18 6-27 2-22-2-44-7-65l-6-18c1 20-1 39-8 57a94 94 0 0 1-61 56c-4 1-9 3-13-1 6-4 12-7 17-12 9-6 17-13 24-21l11-18c8-16 12-34 12-52-2 12-7 23-12 34-11 19-24 36-40 51-14 14-30 25-49 31-4 1-7 2-11 1l-4-2c0-7 3-13 4-19 4-16 7-32 7-48a181 181 0 0 1-56 65c-16 11-32 20-50 27a253 253 0 0 0-1 89c4 20 14 39 27 54l4 5c-6 0-9-4-13-7a97 97 0 0 1-29-46c-1 12 0 24 1 37 0 5 1 10-1 15l-4-3-11-7c-10-7-19-14-27-23-11-12-19-27-23-43l-3-6c-14-13-27-28-36-45-10-19-16-39-17-60-2-32 7-63 24-90 19-31 48-55 79-73a354 354 0 0 1 280-28c3 1 6 4 10 2a102 102 0 0 0 52-63l2-6Z" fill="#000000"/></g><g transform="translate(10 -60)"></g></g></svg>